<svg version="1.1" viewBox="0 0 500 500" xmlns="http://www.w3.org/2000/svg" xmlns:xlink="http://www.w3.org/1999/xlink">
    <title>letterboxd-decal-dots-neg-mono</title>
    <defs>
        <rect id="b" width="129.85" height="141.44" />
        <rect id="a" width="129.85" height="141.44" />
    </defs>
    <g fill="none" fill-rule="evenodd">
        <circle cx="250" cy="250" r="250" fill="#fff" />
        <g transform="translate(61 180)">
            <ellipse cx="189" cy="70" rx="70.079" ry="70" fill="#202830" />
            <g transform="translate(248.15)">
                <mask id="d" fill="white">
                    <use xlink:href="#b" />
                </mask>
                <ellipse cx="59.769" cy="70" rx="70.079" ry="70" fill="#202830" mask="url(#d)" />
            </g>
            <mask id="c" fill="white">
                <use xlink:href="#a" />
            </mask>
            <ellipse cx="70.079" cy="70" rx="70.079" ry="70" fill="#202830" mask="url(#c)" />
            <path id="e"
                d="m129.54 107.06c-6.7288-10.748-10.618-23.452-10.618-37.063s3.8891-26.315 10.618-37.063c6.7288 10.748 10.618 23.452 10.618 37.063s-3.8891 26.315-10.618 37.063z"
                fill="#fff" />
            <path
                d="m248.46 32.937c6.7288 10.748 10.618 23.452 10.618 37.063s-3.8891 26.315-10.618 37.063c-6.7288-10.748-10.618-23.452-10.618-37.063s3.8891-26.315 10.618-37.063z"
                fill="#fff" />
        </g>
    </g>
</svg>